HIERARCHY
ROOT Hips
{
	OFFSET 0.00000 0.00000 0.00000
	CHANNELS 6 Xposition Yposition Zposition Zrotation Yrotation Xrotation 
	JOINT LHipJoint
	{
		OFFSET 0 0 0
		CHANNELS 3 Zrotation Yrotation Xrotation
		JOINT LeftUpLeg
		{
			OFFSET 1.56857 -1.73443 1.15205
			CHANNELS 3 Zrotation Yrotation Xrotation
			JOINT LeftLeg
			{
				OFFSET 2.39362 -6.57643 0.00000
				CHANNELS 3 Zrotation Yrotation Xrotation
				JOINT LeftFoot
				{
					OFFSET 2.50952 -6.89485 0.00000
					CHANNELS 3 Zrotation Yrotation Xrotation
					JOINT LeftToeBase
					{
						OFFSET 0.17171 -0.47178 1.88682
						CHANNELS 3 Zrotation Yrotation Xrotation
						End Site
						{
							OFFSET 0.00000 -0.00000 0.98146
						}
					}
				}
			}
		}
	}
	JOINT RHipJoint
	{
		OFFSET 0 0 0
		CHANNELS 3 Zrotation Yrotation Xrotation
		JOINT RightUpLeg
		{
			OFFSET -1.28153 -1.73443 1.15205
			CHANNELS 3 Zrotation Yrotation Xrotation
			JOINT RightLeg
			{
				OFFSET -2.26861 -6.23296 0.00000
				CHANNELS 3 Zrotation Yrotation Xrotation
				JOINT RightFoot
				{
					OFFSET -2.54143 -6.98254 0.00000
					CHANNELS 3 Zrotation Yrotation Xrotation
					JOINT RightToeBase
					{
						OFFSET -0.23309 -0.64041 1.93119
						CHANNELS 3 Zrotation Yrotation Xrotation
						End Site
						{
							OFFSET -0.00000 -0.00000 1.02013
						}
					}
				}
			}
		}
	}
	JOINT LowerBack
	{
		OFFSET 0 0 0
		CHANNELS 3 Zrotation Yrotation Xrotation
		JOINT Spine
		{
			OFFSET -0.07096 2.10460 -0.27878
			CHANNELS 3 Zrotation Yrotation Xrotation
			JOINT Spine1
			{
				OFFSET -0.00826 2.13662 -0.08279
				CHANNELS 3 Zrotation Yrotation Xrotation
				JOINT Neck
				{
					OFFSET 0 0 0
					CHANNELS 3 Zrotation Yrotation Xrotation
					JOINT Neck1
					{
						OFFSET 0.03239 1.77799 0.24435
						CHANNELS 3 Zrotation Yrotation Xrotation
						JOINT Head
						{
							OFFSET 0.01026 1.74194 -0.49664
							CHANNELS 3 Zrotation Yrotation Xrotation
							End Site
							{
								OFFSET 0.00170 1.83057 -0.19653
							}
						}
					}
				}
				JOINT LeftShoulder
				{
					OFFSET 0 0 0
					CHANNELS 3 Zrotation Yrotation Xrotation
					JOINT LeftArm
					{
						OFFSET 3.19178 1.35907 -0.31412
						CHANNELS 3 Zrotation Yrotation Xrotation
						JOINT LeftForeArm
						{
							OFFSET 4.85247 -0.00000 -0.00000
							CHANNELS 3 Zrotation Yrotation Xrotation
							JOINT LeftHand
							{
								OFFSET 3.55584 -0.00000 0.00000
								CHANNELS 3 Zrotation Yrotation Xrotation
								JOINT LeftFingerBase
								{
									OFFSET 0 0 0
									CHANNELS 3 Zrotation Yrotation Xrotation
									JOINT LeftHandIndex1
									{
										OFFSET 0.69320 -0.00000 0.00000
										CHANNELS 3 Zrotation Yrotation Xrotation
										End Site
										{
											OFFSET 0.55888 -0.00000 0.00000
										}
									}
								}
								JOINT LThumb
								{
									OFFSET 0 0 0
									CHANNELS 3 Zrotation Yrotation Xrotation
									End Site
									{
										OFFSET 0.56741 -0.00000 0.56741
									}
								}
							}
						}
					}
				}
				JOINT RightShoulder
				{
					OFFSET 0 0 0
					CHANNELS 3 Zrotation Yrotation Xrotation
					JOINT RightArm
					{
						OFFSET -3.28999 1.24191 -0.26899
						CHANNELS 3 Zrotation Yrotation Xrotation
						JOINT RightForeArm
						{
							OFFSET -4.64462 -0.00000 0.00000
							CHANNELS 3 Zrotation Yrotation Xrotation
							JOINT RightHand
							{
								OFFSET -3.40703 -0.00000 0.00000
								CHANNELS 3 Zrotation Yrotation Xrotation
								JOINT RightFingerBase
								{
									OFFSET 0 0 0
									CHANNELS 3 Zrotation Yrotation Xrotation
									JOINT RightHandIndex1
									{
										OFFSET -0.61958 -0.00000 0.00000
										CHANNELS 3 Zrotation Yrotation Xrotation
										End Site
										{
											OFFSET -0.49952 -0.00000 0.00000
										}
									}
								}
								JOINT RThumb
								{
									OFFSET 0 0 0
									CHANNELS 3 Zrotation Yrotation Xrotation
									End Site
									{
										OFFSET -0.50715 -0.00000 0.50715
									}
								}
							}
						}
					}
				}
			}
		}
	}
}
MOTION
Frames: 11
Frame Time: .0083333
-29.1244 17.162 0.9 0 0 0 0 0 0 -21 0 0 0 0 0 0 0 0 0 0 0 0 0 0 21 0 0 0 0 0 0 0 0 0 0 0 0 0 0 0 0 0 0 0 0 0 0 -16 0 0 21 0 0 11 0 0 0 -8 0 0 0 0 0 0 0 0 0 0 0 0 0 0 0 0 0 0 0 0 8 0 0 0 0 0 0 0 0 0 0 0 0 0 0 0 0 0
-29.1244 17.1620 0.9000 30.2862 85.2174 30.2047 0.0000 0.0000 0.0000 -17.6987 4.8900 11.0788 0.0077 -0.5670 -1.5582 0.2778 7.6290 -15.5325 0.0870 -1.9026 -5.2366 0.0000 0.0000 0.0000 12.6673 -8.8855 7.0161 -0.0168 -0.8375 2.3019 -0.7614 -1.3918 -17.0442 -0.3718 -3.9162 10.8411 -5.0143 1.6392 6.6857 -0.5068 1.8329 0.9938 2.1216 0.9731 -2.8605 3.3500 2.7057 -22.1001 -2.1963 3.5188 25.1990 -0.7815 1.6846 12.0694 -0.0000 -0.0000 0.0000 -86.0235 0.7378 42.0245 11.5773 -19.1676 -1.9613 -0.0000 -0.0000 17.0184 15.6119 -25.5983 -6.8840 -7.1250 0.0000 -0.0000 -8.5319 3.7834 8.0416 -0.0000 -0.0000 0.0000 87.5935 -3.3456 38.0020 -14.3802 23.2756 -2.9767 0.0000 0.0000 8.5860 -14.4639 -27.1936 6.7231 7.1250 -0.0000 -0.0000 17.3505 -57.0771 -5.2413
-29.1234 17.1581 0.9022 29.0142 85.1951 28.9559 0.0000 0.0000 0.0000 -17.5437 4.9834 11.0451 0.0078 -0.5709 -1.5687 0.2882 7.5440 -15.5883 0.0618 -1.6039 -4.4123 0.0000 0.0000 0.0000 12.8249 -8.6840 7.0894 -0.0157 -0.8085 2.2221 -0.7619 -1.5636 -17.1257 -0.3914 -4.0171 11.1246 -4.9608 1.6303 6.6625 -0.4795 1.8264 0.9904 2.1211 0.9691 -2.8500 3.3269 2.7464 -22.0576 -2.1340 3.5628 25.1095 -0.7475 1.7098 12.0257 -0.0000 0.0000 0.0000 -85.9913 0.7430 41.4932 11.4717 -19.0077 -1.9268 -0.0000 -0.0000 17.4924 14.5936 -25.9129 -6.4911 -7.1250 0.0000 -0.0000 -9.1697 3.6130 8.6875 -0.0000 0.0000 0.0000 87.5713 -3.3054 37.7849 -14.3292 23.2033 -2.9566 0.0000 0.0000 8.6638 -14.5341 -27.1297 6.7423 7.1250 -0.0000 -0.0000 17.2393 -57.0305 -5.1867
-29.1239 17.1510 0.9006 27.8700 85.1147 28.0200 0.0000 0.0000 0.0000 -17.5278 4.9179 10.8706 0.0082 -0.5845 -1.6062 0.2886 7.6057 -15.6556 0.0442 -1.3568 -3.7310 0.0000 0.0000 0.0000 12.8925 -8.6142 6.8283 -0.0162 -0.8209 2.2561 -0.7582 -1.4997 -17.0575 -0.3480 -3.7903 10.4873 -4.8615 1.6524 6.4706 -0.5200 1.8697 0.9251 2.0235 0.9891 -2.8091 3.3155 2.7505 -21.9650 -1.9883 3.5281 25.0126 -0.6980 1.7131 11.9653 0.0000 -0.0000 0.0000 -85.8498 0.7556 41.2864 11.4486 -18.9726 -1.9192 -0.0000 -0.0000 18.0860 14.6323 -25.6972 -6.4589 -7.1250 0.0000 -0.0000 -9.1321 3.8239 8.6149 0.0000 -0.0000 0.0000 87.6290 -3.2932 37.3487 -14.3248 23.1971 -2.9548 0.0000 0.0000 8.5878 -14.2376 -26.8329 6.5339 7.1250 -0.0000 -0.0000 17.3641 -56.6844 -5.0791
-29.1216 17.1576 0.8974 27.5715 85.0512 27.5924 0.0000 0.0000 0.0000 -17.5555 4.9751 11.0587 0.0090 -0.6134 -1.6855 0.2825 7.6689 -15.6379 0.0481 -1.4147 -3.8905 0.0000 0.0000 0.0000 12.7486 -8.9445 6.8441 -0.0167 -0.8351 2.2952 -0.7473 -1.2624 -16.8344 -0.2964 -3.5006 9.6757 -4.8356 1.6836 6.5992 -0.5405 1.9066 0.9514 1.9814 1.0079 -2.8549 3.3416 2.7464 -21.8817 -1.9399 3.4998 24.9599 -0.6899 1.7101 11.9272 0.0000 -0.0000 0.0000 -85.7263 0.8254 41.5156 11.4298 -18.9440 -1.9131 -0.0000 -0.0000 17.5873 16.3777 -25.3050 -7.1600 -7.1250 0.0000 -0.0000 -8.0453 3.9670 7.5456 0.0000 -0.0000 0.0000 87.6064 -3.3401 37.2676 -14.3596 23.2465 -2.9686 0.0000 0.0000 8.6738 -14.2816 -26.8200 6.5518 7.1250 -0.0000 -0.0000 17.3113 -56.6810 -5.0616
-29.1207 17.1584 0.8968 27.9254 84.9336 27.9280 0.0000 0.0000 0.0000 -17.5203 5.3551 10.9037 0.0081 -0.5824 -1.6003 0.2892 7.4168 -15.4740 0.0717 -1.7280 -4.7545 0.0000 0.0000 0.0000 12.5202 -9.2110 6.6949 -0.0185 -0.8782 2.4136 -0.7380 -0.9617 -16.6049 -0.2749 -3.3727 9.3181 -4.9592 1.6930 6.5948 -0.5302 1.9113 0.9586 2.0609 1.0115 -2.8496 3.3382 2.7552 -21.8782 -1.9667 3.5228 24.9803 -0.6955 1.7168 11.9357 0.0000 0.0000 0.0000 -85.6802 0.8793 41.5136 11.4316 -18.9468 -1.9137 -0.0000 -0.0000 17.4211 15.2517 -25.3519 -6.6590 -7.1250 0.0000 -0.0000 -8.7335 4.0832 8.1869 0.0000 0.0000 0.0000 87.5077 -3.3034 37.1073 -14.3465 23.2279 -2.9634 0.0000 0.0000 8.6456 -14.2993 -26.6495 6.5219 7.1250 -0.0000 -0.0000 17.1918 -56.5212 -4.9580
-29.1214 17.1569 0.8972 28.6083 84.9163 28.6500 0.0000 0.0000 0.0000 -17.4465 5.7234 10.6690 0.0073 -0.5516 -1.5158 0.2899 7.1005 -15.1713 0.0743 -1.7589 -4.8397 0.0000 0.0000 0.0000 12.3994 -9.3292 6.5742 -0.0197 -0.9064 2.4912 -0.7416 -0.7620 -16.5633 -0.2758 -3.3777 9.3320 -5.0479 1.6510 6.5617 -0.5230 1.8509 0.9485 2.1244 0.9823 -2.8402 3.3611 2.8217 -21.9509 -1.9867 3.6163 25.0621 -0.6901 1.7577 11.9856 -0.0000 0.0000 0.0000 -85.6548 0.8601 41.2247 11.3528 -18.8270 -1.8882 -0.0000 -0.0000 17.5891 16.6659 -25.4706 -7.3360 -7.1250 0.0000 -0.0000 -7.8827 3.7563 7.4211 -0.0000 0.0000 0.0000 87.4047 -3.3338 37.3139 -14.4814 23.4187 -3.0168 0.0000 0.0000 8.4143 -14.4109 -27.2315 6.7061 7.1250 -0.0000 -0.0000 17.4282 -57.1022 -5.2764
-29.1190 17.1573 0.8953 28.6557 84.8846 28.6796 0.0000 0.0000 0.0000 -17.4832 5.7554 10.7308 0.0081 -0.5826 -1.6009 0.2810 7.1514 -15.0972 0.0931 -1.9680 -5.4171 0.0000 0.0000 0.0000 12.3348 -9.4245 6.5617 -0.0201 -0.9162 2.5184 -0.7403 -0.6767 -16.5154 -0.2848 -3.4324 9.4850 -5.0634 1.6204 6.5578 -0.5128 1.8100 0.9583 2.1478 0.9617 -2.8255 3.2810 2.8034 -21.8424 -1.9566 3.6152 25.0469 -0.6668 1.7551 11.9559 0.0000 -0.0000 0.0000 -85.6421 0.8127 40.8363 11.2359 -18.6490 -1.8507 -0.0000 -0.0000 17.9136 14.8564 -25.6323 -6.5462 -7.1250 0.0000 -0.0000 -8.9921 3.8574 8.4736 0.0000 -0.0000 0.0000 87.3162 -3.3406 37.3732 -14.5518 23.5180 -3.0448 0.0000 0.0000 8.3544 -14.4557 -27.4323 6.7730 7.1250 -0.0000 -0.0000 17.5061 -57.3037 -5.3870
-29.1165 17.1574 0.8938 28.7558 84.8298 28.7780 0.0000 0.0000 0.0000 -17.6575 5.4333 10.9271 0.0095 -0.6308 -1.7335 0.2709 7.5292 -15.3366 0.0948 -1.9856 -5.4660 0.0000 0.0000 0.0000 12.2804 -9.3886 6.5969 -0.0192 -0.8948 2.4595 -0.7334 -0.6607 -16.4333 -0.3147 -3.6065 9.9721 -5.0697 1.6113 6.5298 -0.5220 1.7995 0.9694 2.1437 0.9558 -2.7974 3.2771 2.8564 -21.8943 -1.9219 3.6802 25.0717 -0.6417 1.7878 11.9769 -0.0000 -0.0000 0.0000 -85.5844 0.8118 40.6636 11.1629 -18.5376 -1.8274 -0.0000 -0.0000 18.1005 14.5368 -25.7847 -6.4354 -7.1250 0.0000 -0.0000 -9.1955 3.7495 8.6891 -0.0000 -0.0000 0.0000 87.2876 -3.2810 37.1785 -14.5528 23.5195 -3.0453 0.0000 0.0000 8.5003 -14.3672 -27.4783 6.7405 7.1250 -0.0000 -0.0000 17.6261 -57.3291 -5.4363
-29.1171 17.1567 0.8928 29.0764 84.7951 29.1315 0.0000 0.0000 0.0000 -17.8143 5.1169 11.0087 0.0099 -0.6438 -1.7693 0.2612 7.8793 -15.5635 0.0938 -1.9755 -5.4380 0.0000 0.0000 0.0000 12.2107 -9.3708 6.5535 -0.0189 -0.8882 2.4411 -0.7349 -0.5096 -16.3907 -0.3695 -3.9044 10.8078 -5.0757 1.6046 6.5221 -0.5602 1.7895 0.9627 2.1086 0.9510 -2.7983 3.2917 2.8563 -21.9138 -1.9136 3.6724 25.0914 -0.6420 1.7866 11.9883 0.0000 -0.0000 0.0000 -85.5035 0.8221 40.5027 11.1120 -18.4598 -1.8112 -0.0000 -0.0000 18.2855 15.1132 -25.5764 -6.6502 -7.1250 0.0000 -0.0000 -8.8327 3.8772 8.3165 0.0000 -0.0000 0.0000 87.3402 -3.1791 36.8308 -14.5015 23.4472 -3.0248 0.0000 0.0000 8.7125 -14.3111 -27.2450 6.6611 7.1250 -0.0000 -0.0000 17.5392 -57.0942 -5.3080
-29.1168 17.1565 0.8917 28.7625 84.7647 28.8057 0.0000 0.0000 0.0000 -17.6837 5.4352 10.7607 0.0074 -0.5542 -1.5229 0.2730 7.6249 -15.4634 0.1191 -2.2253 -6.1286 0.0000 0.0000 0.0000 12.1800 -9.4088 6.5244 -0.0198 -0.9086 2.4973 -0.7424 -0.2716 -16.3840 -0.4189 -4.1543 11.5112 -5.0883 1.5813 6.5588 -0.5386 1.7560 0.9654 2.1402 0.9348 -2.8146 3.2858 2.9075 -21.9518 -1.9048 3.7450 25.1297 -0.6249 1.8193 12.0125 0.0000 -0.0000 0.0000 -85.5570 0.8005 39.9597 11.0570 -18.3756 -1.7939 -0.0000 -0.0000 18.7349 16.4437 -24.8046 -7.0585 -7.1250 0.0000 -0.0000 -7.9684 4.4636 7.3974 0.0000 -0.0000 0.0000 87.3129 -3.0556 36.5729 -14.4230 23.3362 -2.9936 0.0000 0.0000 8.8488 -14.2360 -26.6516 6.4926 7.1250 -0.0000 -0.0000 17.2577 -56.5103 -4.9733
